<?xml version="1.0" encoding="iso-8859-1"?>
<!-- Uploaded to: SVG Repo, www.svgrepo.com, Generator: SVG Repo Mixer Tools -->
<!DOCTYPE svg PUBLIC "-//W3C//DTD SVG 1.1//EN" "http://www.w3.org/Graphics/SVG/1.1/DTD/svg11.dtd">
<svg fill="#000000" height="800px" width="800px" version="1.1" id="Capa_1" xmlns="http://www.w3.org/2000/svg" xmlns:xlink="http://www.w3.org/1999/xlink" 
	 viewBox="0 0 449.633 449.633" xml:space="preserve">
<g>
	<path d="M385.18,266.101h-33.936V160.361h12.144c9.925,0,18-8.075,18-18v-72.92c0-9.925-8.075-18-18-18h-24.311V18
		c0-9.925-8.075-18-18-18h-19.262c-9.925,0-18,8.075-18,18v33.441H165.818V18c0-9.925-8.075-18-18-18h-19.261
		c-9.925,0-18,8.075-18,18v33.441H86.245c-9.925,0-18,8.075-18,18v72.92c0,9.925,8.075,18,18,18h12.144v105.739H64.453
		c-3.313,0-6,2.687-6,6v47.119c0,3.314,2.687,6,6,6h8.236v81.951c0,3.314,2.687,6,6,6h18.182v18.462c0,9.925,8.075,18,18,18h219.89
		c9.925,0,18-8.075,18-18v-18.462h18.182c3.313,0,6-2.686,6-6V325.22h8.236c3.314,0,6-2.686,6-6v-47.119
		C391.18,268.787,388.493,266.101,385.18,266.101z M233.999,201.505c-3.426,3.153-6.361,6.827-8.692,10.893
		c-2.331-4.066-5.267-7.739-8.693-10.893H233.999z M87.859,148.361c21.728-24.049,21.728-60.873-0.001-84.92h273.918
		c-10.561,11.672-16.34,26.624-16.34,42.458c-0.001,15.836,5.779,30.79,16.342,42.462h-16.533H104.389H87.859z M80.245,138.814
		V72.99C96.118,91.981,96.118,119.822,80.245,138.814z M369.388,72.988v65.824C353.517,119.82,353.517,91.98,369.388,72.988z
		 M295.814,18c0-3.309,2.691-6,6-6h19.262c3.309,0,6,2.691,6,6v33.441h-31.262V18z M122.558,18c0-3.309,2.691-6,6-6h19.261
		c3.308,0,6,2.691,6,6v33.441h-31.261V18z M339.244,160.361v29.144H110.389v-29.144H339.244z M110.389,201.505h75.511
		c18.421,0,33.407,14.986,33.407,33.407c0,3.314,2.687,6,6,6c3.314,0,6-2.686,6-6c0-18.421,14.986-33.407,33.407-33.407h74.53
		v64.596h-50.18c-3.313,0-6,2.687-6,6v47.119v81.951h-52.256c0.001-0.055,0.008-0.108,0.008-0.163V260.363c0-3.314-2.687-6-6-6
		c-3.314,0-6,2.687-6,6v140.645c0,0.055,0.007,0.108,0.008,0.163h-52.256V319.22v-47.119c0-3.313-2.686-6-6-6h-50.18V201.505z
		 M70.453,278.101h29.779h54.336v35.119H70.453V278.101z M84.689,325.22h69.879v75.951H84.689V325.22z M364.943,401.171h-69.879
		V325.22h69.879V401.171z M379.18,313.22h-84.115v-35.119h56.055h28.061V313.22z"/>
	<circle cx="89.947" cy="295.524" r="9.342"/>
	<circle cx="359.685" cy="295.524" r="9.342"/>
</g>
</svg>